<?xml version="1.0" encoding="UTF-8" standalone="no"?>
<svg
   width="512"
   zoomAndPan="magnify"
   viewBox="0 0 384 224.24999"
   height="299"
   preserveAspectRatio="xMidYMid"
   version="1.0"
   id="svg45"
   xmlns="http://www.w3.org/2000/svg"
   xmlns:svg="http://www.w3.org/2000/svg">
  <defs
     id="defs7">
    <clipPath
       id="96810a9133">
      <path
         d="m 346,61 h 14.93359 V 76 H 346 Z m 0,0"
         clip-rule="nonzero"
         id="path1" />
    </clipPath>
    <clipPath
       id="7959b52d83">
      <path
         d="m 231,206 h 5 v 4.04687 h -5 z m 0,0"
         clip-rule="nonzero"
         id="path2" />
    </clipPath>
    <clipPath
       id="da35920554">
      <path
         d="M 0.640625,80 H 6 v 6 H 0.640625 Z m 0,0"
         clip-rule="nonzero"
         id="path3" />
    </clipPath>
  </defs>
  <path
     fill="#ffffff"
     d="m 51.554688,19.644531 0.414062,2.851563 c 0.01953,0.128906 0.07813,0.25 0.171875,0.34375 0.09766,0.09375 0.21875,0.15625 0.347656,0.175781 l 2.847657,0.410156 -2.847657,0.414063 c -0.132812,0.01953 -0.253906,0.08203 -0.347656,0.175781 -0.09375,0.09375 -0.15625,0.214844 -0.171875,0.34375 l -0.414062,2.851563 -0.414063,-2.851563 c -0.01953,-0.132813 -0.07813,-0.25 -0.171875,-0.34375 -0.09766,-0.09375 -0.21875,-0.15625 -0.347656,-0.175781 l -2.847656,-0.414063 2.847656,-0.410156 c 0.132812,-0.02344 0.253906,-0.08203 0.347656,-0.175781 0.09375,-0.09375 0.15625,-0.214844 0.171875,-0.34375 z m 0,0"
     fill-opacity="1"
     fill-rule="nonzero"
     id="path8" />
  <path
     fill="#ffffff"
     d="m 55.339844,102.43359 0.414062,2.85157 c 0.01953,0.1289 0.07813,0.25 0.171875,0.34375 0.09375,0.0937 0.214844,0.15625 0.347657,0.17578 l 2.847656,0.41015 -2.851563,0.41407 c -0.128906,0.0195 -0.25,0.0781 -0.34375,0.17578 -0.09375,0.0898 -0.15625,0.21484 -0.175781,0.34375 L 55.339844,110 54.925781,107.14844 c -0.01953,-0.13281 -0.07813,-0.25 -0.175781,-0.34766 -0.09375,-0.0937 -0.214844,-0.15625 -0.34375,-0.17187 l -2.851562,-0.41407 2.851562,-0.41406 c 0.128906,-0.0195 0.25,-0.0781 0.34375,-0.17187 0.09375,-0.0937 0.15625,-0.21485 0.175781,-0.34766 z m 0,0"
     fill-opacity="1"
     fill-rule="nonzero"
     id="path9" />
  <g
     clip-path="url(#96810a9133)"
     id="g10">
    <path
       fill="#ffffff"
       d="m 353.49609,61.171875 0.80078,5.503906 c 0.0352,0.25 0.15235,0.484375 0.33594,0.667969 0.1836,0.179688 0.41406,0.300781 0.66797,0.335938 l 5.5,0.792968 -5.50391,0.800782 c -0.2539,0.03516 -0.48437,0.152343 -0.66796,0.335937 -0.17969,0.179687 -0.30079,0.414063 -0.33594,0.667969 l -0.79688,5.5 -0.79687,-5.503906 c -0.0391,-0.253907 -0.15235,-0.484376 -0.33594,-0.667969 -0.18359,-0.179688 -0.41797,-0.300781 -0.66797,-0.335938 l -5.5,-0.796875 5.50391,-0.796875 c 0.25,-0.03906 0.48437,-0.152343 0.66797,-0.335937 0.17968,-0.179688 0.30078,-0.417969 0.33593,-0.667969 z m 0,0"
       fill-opacity="1"
       fill-rule="nonzero"
       id="path10" />
  </g>
  <path
     fill="#ffffff"
     d="m 320.41797,159.00391 0.5664,3.91015 c 0.0274,0.17969 0.10938,0.34375 0.23829,0.47656 0.13281,0.125 0.29687,0.21094 0.47656,0.23829 l 3.91015,0.5664 -3.91406,0.56641 c -0.17969,0.0273 -0.34375,0.10937 -0.47265,0.23828 -0.12891,0.12891 -0.21485,0.29687 -0.24219,0.47656 l -0.5625,3.90625 -0.57031,-3.91015 c -0.0274,-0.17969 -0.10938,-0.34375 -0.23829,-0.47657 -0.1289,-0.125 -0.29296,-0.21093 -0.47265,-0.23828 l -3.91016,-0.5664 3.91016,-0.56641 c 0.17969,-0.0273 0.34375,-0.10938 0.47656,-0.23828 0.12891,-0.12891 0.21484,-0.29688 0.23828,-0.47266 z m 0,0"
     fill-opacity="1"
     fill-rule="nonzero"
     id="path11" />
  <path
     fill="#ffffff"
     d="m 33.253906,23.164062 1.03125,7.09375 c 0.05078,0.328126 0.195313,0.625 0.433594,0.863282 0.234375,0.230468 0.535156,0.386718 0.859375,0.429687 l 7.089844,1.027344 -7.09375,1.03125 c -0.324219,0.04687 -0.625,0.195313 -0.859375,0.433594 -0.234375,0.230469 -0.390625,0.535156 -0.433594,0.859375 l -1.027344,7.089844 -1.027344,-7.097657 c -0.05078,-0.324219 -0.199218,-0.621093 -0.433593,-0.859375 -0.238281,-0.230468 -0.535157,-0.386718 -0.859375,-0.433594 l -7.09375,-1.023437 7.097656,-1.03125 c 0.324219,-0.05078 0.625,-0.195313 0.859375,-0.433594 0.230469,-0.230469 0.386719,-0.535156 0.433594,-0.859375 z m 0,0"
     fill-opacity="1"
     fill-rule="nonzero"
     id="path12" />
  <path
     fill="#ffffff"
     d="m 246.51562,151.26172 0.875,6.03125 c 0.043,0.27734 0.16797,0.53125 0.36719,0.73437 0.20313,0.19532 0.45703,0.32813 0.73438,0.36719 l 6.03125,0.87109 -6.03516,0.87891 c -0.27734,0.0391 -0.53125,0.16406 -0.73047,0.36719 -0.19922,0.19531 -0.33203,0.45312 -0.37109,0.73047 l -0.8711,6.03125 -0.875,-6.03516 c -0.043,-0.27734 -0.16796,-0.53125 -0.37109,-0.73047 -0.19922,-0.19922 -0.45312,-0.33203 -0.73047,-0.36719 l -6.03125,-0.875 6.03516,-0.875 c 0.27734,-0.043 0.53125,-0.16796 0.73047,-0.36718 0.19922,-0.19922 0.33203,-0.45703 0.37109,-0.73438 z m 0,0"
     fill-opacity="1"
     fill-rule="nonzero"
     id="path13" />
  <path
     fill="#ffffff"
     d="m 173.31641,163.22656 0.95312,6.5625 c 0.0469,0.30078 0.18359,0.57813 0.40234,0.79688 0.21875,0.21484 0.49219,0.35937 0.79688,0.40234 l 6.55859,0.94531 -6.5664,0.95313 c -0.30078,0.0469 -0.57422,0.18359 -0.79297,0.40234 -0.21485,0.21485 -0.35938,0.4961 -0.40235,0.79688 l -0.94921,6.55859 -0.95313,-6.5625 c -0.043,-0.30078 -0.17969,-0.57812 -0.39844,-0.79687 -0.21875,-0.21485 -0.49609,-0.35938 -0.79687,-0.40235 l -6.5586,-0.94922 6.5625,-0.95312 c 0.30079,-0.043 0.57813,-0.17969 0.79688,-0.39844 0.21484,-0.21484 0.35937,-0.49609 0.39844,-0.79687 z m 0,0"
     fill-opacity="1"
     fill-rule="nonzero"
     id="path14" />
  <path
     fill="#ffffff"
     d="m 95.835938,39.351562 c 0,0.28125 -0.05469,0.550782 -0.160157,0.808594 -0.109375,0.257813 -0.261719,0.488282 -0.457031,0.683594 -0.199219,0.199219 -0.429688,0.351562 -0.6875,0.457031 -0.257812,0.109375 -0.527344,0.164063 -0.808594,0.164063 -0.277344,0 -0.546875,-0.05469 -0.808594,-0.164063 -0.257812,-0.105469 -0.484374,-0.257812 -0.683593,-0.457031 -0.199219,-0.195312 -0.351563,-0.425781 -0.457031,-0.683594 -0.109376,-0.257812 -0.160157,-0.527344 -0.160157,-0.808594 0,-0.28125 0.05078,-0.550781 0.160157,-0.808593 0.105468,-0.257813 0.257812,-0.488281 0.457031,-0.683594 0.199219,-0.199219 0.425781,-0.351563 0.683593,-0.457031 0.261719,-0.109375 0.53125,-0.164063 0.808594,-0.164063 0.28125,0 0.550782,0.05469 0.808594,0.164063 0.257812,0.105468 0.488281,0.257812 0.6875,0.457031 0.195312,0.195313 0.347656,0.425781 0.457031,0.683594 0.105469,0.257812 0.160157,0.527343 0.160157,0.808593 z m 0,0"
     fill-opacity="1"
     fill-rule="nonzero"
     id="path15" />
  <path
     fill="#ffffff"
     d="m 107.09766,25.980469 c 0,0.183593 -0.0352,0.363281 -0.10938,0.539062 -0.0703,0.171875 -0.17187,0.324219 -0.30469,0.453125 -0.13281,0.132813 -0.28515,0.234375 -0.45703,0.308594 -0.17187,0.07031 -0.35156,0.105469 -0.53906,0.105469 -0.18359,0 -0.36328,-0.03516 -0.53906,-0.105469 -0.17188,-0.07422 -0.32422,-0.175781 -0.45313,-0.308594 -0.13281,-0.128906 -0.23437,-0.28125 -0.30859,-0.453125 -0.0703,-0.175781 -0.10547,-0.355469 -0.10547,-0.539062 0,-0.1875 0.0352,-0.367188 0.10547,-0.539063 0.0742,-0.171875 0.17578,-0.324218 0.30859,-0.457031 0.12891,-0.132813 0.28125,-0.234375 0.45313,-0.304687 0.17578,-0.07422 0.35547,-0.109376 0.53906,-0.109376 0.1875,0 0.36719,0.03516 0.53906,0.109376 0.17188,0.07031 0.32422,0.171874 0.45703,0.304687 0.13282,0.132813 0.23438,0.285156 0.30469,0.457031 0.0742,0.171875 0.10938,0.351563 0.10938,0.539063 z m 0,0"
     fill-opacity="1"
     fill-rule="nonzero"
     id="path16" />
  <path
     fill="#ffffff"
     d="m 20.527344,161.19531 c 0,0.1875 -0.03906,0.36719 -0.109375,0.53906 -0.07031,0.17188 -0.171875,0.32422 -0.304688,0.45704 -0.132812,0.13281 -0.285156,0.23437 -0.457031,0.30468 -0.171875,0.0703 -0.351562,0.10938 -0.539062,0.10938 -0.1875,0 -0.367188,-0.0391 -0.539063,-0.10938 -0.171875,-0.0703 -0.324219,-0.17187 -0.457031,-0.30468 -0.128906,-0.13282 -0.230469,-0.28516 -0.304688,-0.45704 -0.07031,-0.17187 -0.105468,-0.35156 -0.105468,-0.53906 0,-0.1875 0.03516,-0.36719 0.105468,-0.53906 0.07422,-0.17188 0.175782,-0.32422 0.304688,-0.45703 0.132812,-0.12891 0.285156,-0.23047 0.457031,-0.30469 0.171875,-0.0703 0.351563,-0.10547 0.539063,-0.10547 0.1875,0 0.367187,0.0352 0.539062,0.10547 0.171875,0.0742 0.324219,0.17578 0.457031,0.30469 0.132813,0.13281 0.234375,0.28515 0.304688,0.45703 0.07031,0.17187 0.109375,0.35156 0.109375,0.53906 z m 0,0"
     fill-opacity="1"
     fill-rule="nonzero"
     id="path17" />
  <path
     fill="#ffffff"
     d="m 136.65625,103.39844 c 0,0.1875 -0.0352,0.36719 -0.10547,0.53906 -0.0703,0.17188 -0.17187,0.32422 -0.30469,0.45703 -0.13281,0.13281 -0.28515,0.23438 -0.45703,0.30469 -0.17187,0.0742 -0.35156,0.10937 -0.53906,0.10937 -0.1875,0 -0.36719,-0.0352 -0.53906,-0.10937 -0.17188,-0.0703 -0.32422,-0.17188 -0.45703,-0.30469 -0.13282,-0.13281 -0.23438,-0.28515 -0.30469,-0.45703 -0.0703,-0.17187 -0.10547,-0.35156 -0.10547,-0.53906 0,-0.1836 0.0352,-0.36328 0.10547,-0.53906 0.0703,-0.17188 0.17187,-0.32422 0.30469,-0.45313 0.13281,-0.13281 0.28515,-0.23437 0.45703,-0.30859 0.17187,-0.0703 0.35156,-0.10547 0.53906,-0.10547 0.1875,0 0.36719,0.0352 0.53906,0.10547 0.17188,0.0742 0.32422,0.17578 0.45703,0.30859 0.13282,0.12891 0.23438,0.28125 0.30469,0.45313 0.0703,0.17578 0.10547,0.35546 0.10547,0.53906 z m 0,0"
     fill-opacity="1"
     fill-rule="nonzero"
     id="path18" />
  <path
     fill="#ffffff"
     d="m 49.179688,180.64453 c 0,0.1875 -0.03516,0.36719 -0.109376,0.53906 -0.07031,0.17188 -0.171874,0.32422 -0.304687,0.45703 -0.128906,0.13282 -0.28125,0.23438 -0.457031,0.30469 -0.171875,0.0742 -0.351563,0.10938 -0.535156,0.10938 -0.1875,0 -0.367188,-0.0352 -0.539063,-0.10938 -0.175781,-0.0703 -0.328125,-0.17187 -0.457031,-0.30469 -0.132813,-0.13281 -0.234375,-0.28515 -0.304688,-0.45703 -0.07422,-0.17187 -0.109375,-0.35156 -0.109375,-0.53906 0,-0.18359 0.03516,-0.36328 0.109375,-0.53906 0.07031,-0.17188 0.171875,-0.32422 0.304688,-0.45313 0.128906,-0.13281 0.28125,-0.23437 0.457031,-0.30859 0.171875,-0.0703 0.351563,-0.10547 0.539063,-0.10547 0.183593,0 0.363281,0.0352 0.535156,0.10547 0.175781,0.0742 0.328125,0.17578 0.457031,0.30859 0.132813,0.12891 0.234375,0.28125 0.304687,0.45313 0.07422,0.17578 0.109376,0.35547 0.109376,0.53906 z m 0,0"
     fill-opacity="1"
     fill-rule="nonzero"
     id="path19" />
  <path
     fill="#ffffff"
     d="m 197.1875,84.398438 c 0,0.183593 -0.0352,0.363281 -0.10938,0.535156 -0.0703,0.175781 -0.17187,0.328125 -0.30468,0.457031 -0.13282,0.132813 -0.28516,0.234375 -0.45703,0.304687 -0.17188,0.07422 -0.35157,0.109376 -0.53907,0.109376 -0.18359,0 -0.36328,-0.03516 -0.53906,-0.109376 -0.17187,-0.07031 -0.32422,-0.171874 -0.45312,-0.304687 -0.13282,-0.128906 -0.23438,-0.28125 -0.3086,-0.457031 -0.0703,-0.171875 -0.10547,-0.351563 -0.10547,-0.535156 0,-0.1875 0.0352,-0.367188 0.10547,-0.539063 0.0742,-0.175781 0.17578,-0.324219 0.3086,-0.457031 0.1289,-0.132813 0.28125,-0.234375 0.45312,-0.304688 0.17578,-0.07422 0.35547,-0.109375 0.53906,-0.109375 0.1875,0 0.36719,0.03516 0.53907,0.109375 0.17187,0.07031 0.32421,0.171875 0.45703,0.304688 0.13281,0.132812 0.23437,0.28125 0.30468,0.457031 0.0742,0.171875 0.10938,0.351563 0.10938,0.539063 z m 0,0"
     fill-opacity="1"
     fill-rule="nonzero"
     id="path20" />
  <path
     fill="#ffffff"
     d="m 157.77344,68.914062 c 0,0.183594 -0.0352,0.363282 -0.10938,0.535157 -0.0703,0.175781 -0.17187,0.328125 -0.30469,0.457031 -0.13281,0.132812 -0.28515,0.234375 -0.45703,0.308594 -0.17187,0.07031 -0.35156,0.105468 -0.53906,0.105468 -0.18359,0 -0.36328,-0.03516 -0.53906,-0.105468 -0.17188,-0.07422 -0.32422,-0.175782 -0.45703,-0.308594 -0.12891,-0.128906 -0.23047,-0.28125 -0.30469,-0.457031 -0.0703,-0.171875 -0.10547,-0.351563 -0.10547,-0.535157 0,-0.1875 0.0352,-0.367187 0.10547,-0.539062 0.0742,-0.171875 0.17578,-0.324219 0.30469,-0.457031 0.13281,-0.132813 0.28515,-0.234375 0.45703,-0.304688 0.17578,-0.07422 0.35547,-0.109375 0.53906,-0.109375 0.1875,0 0.36719,0.03516 0.53906,0.109375 0.17188,0.07031 0.32422,0.171875 0.45703,0.304688 0.13282,0.132812 0.23438,0.285156 0.30469,0.457031 0.0742,0.171875 0.10938,0.351562 0.10938,0.539062 z m 0,0"
     fill-opacity="1"
     fill-rule="nonzero"
     id="path21" />
  <path
     fill="#ffffff"
     d="m 157.77344,61.875 c 0,0.1875 -0.0352,0.367188 -0.10938,0.539062 -0.0703,0.171876 -0.17187,0.324219 -0.30469,0.457032 -0.13281,0.128906 -0.28515,0.230468 -0.45703,0.304687 -0.17187,0.07031 -0.35156,0.105469 -0.53906,0.105469 -0.18359,0 -0.36328,-0.03516 -0.53906,-0.105469 C 155.65234,63.101562 155.5,63 155.36719,62.871094 c -0.12891,-0.132813 -0.23047,-0.285156 -0.30469,-0.457032 -0.0703,-0.171874 -0.10547,-0.351562 -0.10547,-0.539062 0,-0.1875 0.0352,-0.367188 0.10547,-0.539062 0.0742,-0.171876 0.17578,-0.324219 0.30469,-0.457032 0.13281,-0.132812 0.28515,-0.234375 0.45703,-0.304687 0.17578,-0.07031 0.35547,-0.109375 0.53906,-0.109375 0.1875,0 0.36719,0.03906 0.53906,0.109375 0.17188,0.07031 0.32422,0.171875 0.45703,0.304687 0.13282,0.132813 0.23438,0.285156 0.30469,0.457032 0.0742,0.171874 0.10938,0.351562 0.10938,0.539062 z m 0,0"
     fill-opacity="1"
     fill-rule="nonzero"
     id="path22" />
  <path
     fill="#ffffff"
     d="m 135.25,202.875 c 0,0.1875 -0.0352,0.36719 -0.10938,0.53906 -0.0703,0.17188 -0.17187,0.32422 -0.30468,0.45703 -0.12891,0.12891 -0.28125,0.23047 -0.45703,0.30469 -0.17188,0.0703 -0.35157,0.10547 -0.53516,0.10547 -0.1875,0 -0.36719,-0.0352 -0.53906,-0.10547 -0.17578,-0.0742 -0.32422,-0.17578 -0.45703,-0.30469 -0.13282,-0.13281 -0.23438,-0.28515 -0.30469,-0.45703 -0.0742,-0.17187 -0.10938,-0.35156 -0.10938,-0.53906 0,-0.1875 0.0352,-0.36719 0.10938,-0.53906 0.0703,-0.17188 0.17187,-0.32422 0.30469,-0.45703 0.13281,-0.13282 0.28125,-0.23438 0.45703,-0.30469 0.17187,-0.0703 0.35156,-0.10938 0.53906,-0.10938 0.18359,0 0.36328,0.0391 0.53516,0.10938 0.17578,0.0703 0.32812,0.17187 0.45703,0.30469 0.13281,0.13281 0.23437,0.28515 0.30468,0.45703 0.0742,0.17187 0.10938,0.35156 0.10938,0.53906 z m 0,0"
     fill-opacity="1"
     fill-rule="nonzero"
     id="path23" />
  <path
     fill="#ffffff"
     d="m 130.32422,57.652344 c 0,0.183594 -0.0352,0.363281 -0.10938,0.539062 -0.0703,0.171875 -0.17187,0.324219 -0.30468,0.457032 -0.13282,0.128906 -0.28516,0.230468 -0.45704,0.304687 -0.17187,0.07031 -0.35156,0.105469 -0.53906,0.105469 -0.18359,0 -0.36328,-0.03516 -0.53906,-0.105469 -0.17188,-0.07422 -0.32422,-0.175781 -0.45703,-0.304687 -0.12891,-0.132813 -0.23047,-0.285157 -0.30469,-0.457032 -0.0703,-0.175781 -0.10547,-0.355468 -0.10547,-0.539062 0,-0.1875 0.0352,-0.367188 0.10547,-0.539063 0.0742,-0.171875 0.17578,-0.324219 0.30469,-0.457031 0.13281,-0.132812 0.28515,-0.234375 0.45703,-0.304688 0.17578,-0.07422 0.35547,-0.109374 0.53906,-0.109374 0.1875,0 0.36719,0.03516 0.53906,0.109374 0.17188,0.07031 0.32422,0.171876 0.45704,0.304688 0.13281,0.132812 0.23437,0.285156 0.30468,0.457031 0.0742,0.171875 0.10938,0.351563 0.10938,0.539063 z m 0,0"
     fill-opacity="1"
     fill-rule="nonzero"
     id="path24" />
  <path
     fill="#ffffff"
     d="m 172.55078,1.34375 c 0,0.1875 -0.0352,0.367188 -0.10547,0.539062 -0.0703,0.171876 -0.17187,0.324219 -0.30469,0.457032 -0.13281,0.132812 -0.28515,0.234375 -0.45703,0.304687 -0.17187,0.074219 -0.35156,0.109375 -0.53906,0.109375 -0.1875,0 -0.36719,-0.035156 -0.53906,-0.109375 -0.17188,-0.070312 -0.32422,-0.171875 -0.45703,-0.304687 -0.13282,-0.132813 -0.23438,-0.285156 -0.30469,-0.457032 -0.0703,-0.171874 -0.10547,-0.351562 -0.10547,-0.539062 0,-0.183594 0.0352,-0.363281 0.10547,-0.539062 0.0703,-0.171876 0.17187,-0.324219 0.30469,-0.457032 0.13281,-0.128906 0.28515,-0.230468 0.45703,-0.3046872 0.17187,-0.0703126 0.35156,-0.1054688 0.53906,-0.1054688 0.1875,0 0.36719,0.0351562 0.53906,0.1054688 0.17188,0.0742192 0.32422,0.1757812 0.45703,0.3046872 0.13282,0.132813 0.23438,0.285156 0.30469,0.457032 0.0703,0.175781 0.10547,0.355468 0.10547,0.539062 z m 0,0"
     fill-opacity="1"
     fill-rule="nonzero"
     id="path25" />
  <path
     fill="#ffffff"
     d="m 202.11328,134.36719 c 0,0.1875 -0.0352,0.36718 -0.10547,0.53906 -0.0742,0.17187 -0.17578,0.32422 -0.30859,0.45703 -0.12891,0.13281 -0.28125,0.23438 -0.45313,0.30469 -0.17578,0.0742 -0.35547,0.10937 -0.53906,0.10937 -0.1875,0 -0.36719,-0.0352 -0.53906,-0.10937 -0.17188,-0.0703 -0.32422,-0.17188 -0.45703,-0.30469 -0.13282,-0.13281 -0.23438,-0.28516 -0.30469,-0.45703 -0.0742,-0.17188 -0.10938,-0.35156 -0.10938,-0.53906 0,-0.1836 0.0352,-0.36328 0.10938,-0.53907 0.0703,-0.17187 0.17187,-0.32421 0.30469,-0.45312 0.13281,-0.13281 0.28515,-0.23438 0.45703,-0.30859 0.17187,-0.0703 0.35156,-0.10547 0.53906,-0.10547 0.18359,0 0.36328,0.0352 0.53906,0.10547 0.17188,0.0742 0.32422,0.17578 0.45313,0.30859 0.13281,0.12891 0.23437,0.28125 0.30859,0.45312 0.0703,0.17579 0.10547,0.35547 0.10547,0.53907 z m 0,0"
     fill-opacity="1"
     fill-rule="nonzero"
     id="path26" />
  <path
     fill="#ffffff"
     d="m 74.953125,186.9375 c 0,0.375 -0.07031,0.73437 -0.214844,1.08203 -0.144531,0.34766 -0.347656,0.65234 -0.613281,0.91797 -0.265625,0.26562 -0.570312,0.47266 -0.917969,0.61328 -0.347656,0.14453 -0.707031,0.21484 -1.082031,0.21484 -0.378906,0 -0.738281,-0.0703 -1.085938,-0.21484 -0.34375,-0.14062 -0.652343,-0.34766 -0.917968,-0.61328 -0.265625,-0.26563 -0.46875,-0.57031 -0.613282,-0.91797 -0.144531,-0.34766 -0.214843,-0.70703 -0.214843,-1.08203 0,-0.375 0.07031,-0.73828 0.214843,-1.08203 0.144532,-0.34766 0.347657,-0.65235 0.613282,-0.91797 0.265625,-0.26563 0.574218,-0.47266 0.917968,-0.61328 0.347657,-0.14453 0.707032,-0.21875 1.085938,-0.21875 0.375,0 0.734375,0.0742 1.082031,0.21875 0.347657,0.14062 0.652344,0.34765 0.917969,0.61328 0.265625,0.26562 0.46875,0.57031 0.613281,0.91797 0.144531,0.34375 0.214844,0.70703 0.214844,1.08203 z m 0,0"
     fill-opacity="1"
     fill-rule="nonzero"
     id="path27" />
  <path
     fill="#ffffff"
     d="m 335.83984,116.77344 c 0,0.28125 -0.0547,0.54687 -0.16015,0.80859 -0.10547,0.25781 -0.25782,0.48438 -0.45703,0.6836 -0.19922,0.19921 -0.42579,0.35156 -0.6836,0.45703 -0.26172,0.10937 -0.53125,0.16015 -0.80859,0.16015 -0.28125,0 -0.55078,-0.0508 -0.8086,-0.16015 -0.25781,-0.10547 -0.48828,-0.25782 -0.6875,-0.45703 -0.19531,-0.19922 -0.34765,-0.42579 -0.45703,-0.6836 -0.10547,-0.26172 -0.16015,-0.52734 -0.16015,-0.80859 0,-0.28125 0.0547,-0.55078 0.16015,-0.8086 0.10938,-0.25781 0.26172,-0.48828 0.45703,-0.68359 0.19922,-0.19922 0.42969,-0.35156 0.6875,-0.46094 0.25782,-0.10547 0.52735,-0.16015 0.8086,-0.16015 0.27734,0 0.54687,0.0547 0.80859,0.16015 0.25781,0.10938 0.48438,0.26172 0.6836,0.46094 0.19921,0.19531 0.35156,0.42578 0.45703,0.68359 0.10547,0.25782 0.16015,0.52735 0.16015,0.8086 z m 0,0"
     fill-opacity="1"
     fill-rule="nonzero"
     id="path28" />
  <path
     fill="#ffffff"
     d="m 121.875,103.39844 c 0,0.28125 -0.0508,0.55078 -0.16016,0.80859 -0.10546,0.25781 -0.25781,0.48828 -0.45703,0.6875 -0.19922,0.19531 -0.42578,0.34766 -0.68359,0.45703 -0.25781,0.10547 -0.52734,0.16016 -0.80859,0.16016 -0.28125,0 -0.55079,-0.0547 -0.8086,-0.16016 -0.25781,-0.10937 -0.48828,-0.26172 -0.68359,-0.45703 -0.19922,-0.19922 -0.35156,-0.42969 -0.45703,-0.6875 -0.10938,-0.25781 -0.16407,-0.52734 -0.16407,-0.80859 0,-0.27735 0.0547,-0.54688 0.16407,-0.80469 0.10547,-0.26172 0.25781,-0.48828 0.45703,-0.6875 0.19531,-0.19922 0.42578,-0.35156 0.68359,-0.45703 0.25781,-0.10547 0.52735,-0.16016 0.8086,-0.16016 0.28125,0 0.55078,0.0547 0.80859,0.16016 0.25781,0.10547 0.48437,0.25781 0.68359,0.45703 0.19922,0.19922 0.35157,0.42578 0.45703,0.6875 0.10938,0.25781 0.16016,0.52734 0.16016,0.80469 z m 0,0"
     fill-opacity="1"
     fill-rule="nonzero"
     id="path29" />
  <path
     fill="#ffffff"
     d="m 250.67578,136.48047 c 0,0.28125 -0.0508,0.54687 -0.16016,0.80859 -0.10546,0.25781 -0.25781,0.48438 -0.45703,0.6836 -0.19922,0.19921 -0.42578,0.35156 -0.68359,0.45703 -0.25781,0.10937 -0.52734,0.16015 -0.80859,0.16015 -0.28125,0 -0.55079,-0.0508 -0.8086,-0.16015 -0.25781,-0.10547 -0.48828,-0.25782 -0.68359,-0.45703 -0.19922,-0.19922 -0.35156,-0.42579 -0.46094,-0.6836 -0.10547,-0.26172 -0.16016,-0.52734 -0.16016,-0.80859 0,-0.28125 0.0547,-0.55078 0.16016,-0.8086 0.10938,-0.25781 0.26172,-0.48828 0.46094,-0.68359 0.19531,-0.19922 0.42578,-0.35156 0.68359,-0.46094 0.25781,-0.10547 0.52735,-0.16015 0.8086,-0.16015 0.28125,0 0.55078,0.0547 0.80859,0.16015 0.25781,0.10938 0.48437,0.26172 0.68359,0.46094 0.19922,0.19531 0.35157,0.42578 0.45703,0.68359 0.10938,0.25782 0.16016,0.52735 0.16016,0.8086 z m 0,0"
     fill-opacity="1"
     fill-rule="nonzero"
     id="path30" />
  <g
     clip-path="url(#7959b52d83)"
     id="g31">
    <path
       fill="#ffffff"
       d="m 235.89844,208.26953 c 0,0.28125 -0.0547,0.55078 -0.16407,0.80859 -0.10546,0.25782 -0.25781,0.48829 -0.45703,0.6836 -0.19531,0.19922 -0.42578,0.35156 -0.68359,0.46094 -0.25781,0.10546 -0.52734,0.16015 -0.80859,0.16015 -0.28125,0 -0.55079,-0.0547 -0.8086,-0.16015 -0.25781,-0.10938 -0.48437,-0.26172 -0.68359,-0.46094 -0.19922,-0.19531 -0.35156,-0.42578 -0.45703,-0.6836 -0.10938,-0.25781 -0.16016,-0.52734 -0.16016,-0.80859 0,-0.27734 0.0508,-0.54687 0.16016,-0.80859 0.10547,-0.25782 0.25781,-0.48438 0.45703,-0.6836 0.19922,-0.19922 0.42578,-0.35156 0.68359,-0.45703 0.25781,-0.10937 0.52735,-0.16015 0.8086,-0.16015 0.28125,0 0.55078,0.0508 0.80859,0.16015 0.25781,0.10547 0.48828,0.25781 0.68359,0.45703 0.19922,0.19922 0.35157,0.42578 0.45703,0.6836 0.10938,0.26172 0.16407,0.53125 0.16407,0.80859 z m 0,0"
       fill-opacity="1"
       fill-rule="nonzero"
       id="path31" />
  </g>
  <path
     fill="#ffffff"
     d="m 96.539062,82.988281 c 0,0.28125 -0.05469,0.550781 -0.160156,0.808594 -0.109375,0.257813 -0.261718,0.488281 -0.457031,0.683594 -0.199219,0.199219 -0.425781,0.351562 -0.6875,0.460937 -0.257813,0.105469 -0.527344,0.160156 -0.808594,0.160156 -0.277343,0 -0.546875,-0.05469 -0.804687,-0.160156 -0.261719,-0.109375 -0.488282,-0.261718 -0.6875,-0.460937 -0.195313,-0.195313 -0.347656,-0.425781 -0.457032,-0.683594 -0.105468,-0.257813 -0.160156,-0.527344 -0.160156,-0.808594 0,-0.277343 0.05469,-0.546875 0.160156,-0.808593 0.109376,-0.257813 0.261719,-0.484376 0.457032,-0.683594 0.199218,-0.199219 0.425781,-0.351563 0.6875,-0.457032 0.257812,-0.109374 0.527344,-0.160156 0.804687,-0.160156 0.28125,0 0.550781,0.05078 0.808594,0.160156 0.261719,0.105469 0.488281,0.257813 0.6875,0.457032 0.195313,0.199218 0.347656,0.425781 0.457031,0.683594 0.105469,0.261718 0.160156,0.53125 0.160156,0.808593 z m 0,0"
     fill-opacity="1"
     fill-rule="nonzero"
     id="path32" />
  <path
     fill="#ffffff"
     d="m 347.60156,125.23047 c 0,0.1875 -0.0351,0.36719 -0.10547,0.53906 -0.0742,0.17188 -0.17578,0.32422 -0.30468,0.45703 -0.13282,0.13282 -0.28516,0.23438 -0.45704,0.30469 -0.17187,0.0703 -0.35156,0.10547 -0.53906,0.10547 -0.1875,0 -0.36719,-0.0352 -0.53906,-0.10547 -0.17188,-0.0703 -0.32422,-0.17187 -0.45703,-0.30469 -0.13281,-0.13281 -0.23438,-0.28515 -0.30469,-0.45703 -0.0703,-0.17187 -0.10937,-0.35156 -0.10937,-0.53906 0,-0.1875 0.0391,-0.36719 0.10937,-0.53906 0.0703,-0.17188 0.17188,-0.32422 0.30469,-0.45703 0.13281,-0.13282 0.28515,-0.23438 0.45703,-0.30469 0.17187,-0.0703 0.35156,-0.10547 0.53906,-0.10547 0.1875,0 0.36719,0.0352 0.53906,0.10547 0.17188,0.0703 0.32422,0.17187 0.45704,0.30469 0.1289,0.13281 0.23046,0.28515 0.30468,0.45703 0.0703,0.17187 0.10547,0.35156 0.10547,0.53906 z m 0,0"
     fill-opacity="1"
     fill-rule="nonzero"
     id="path33" />
  <path
     fill="#ffffff"
     d="m 355.48437,106.21484 c 0,0.28125 -0.0547,0.55079 -0.16015,0.8086 -0.10938,0.25781 -0.26172,0.48828 -0.45703,0.68359 -0.19922,0.19922 -0.42969,0.35156 -0.6875,0.46094 -0.25782,0.10547 -0.52735,0.16016 -0.8086,0.16016 -0.27734,0 -0.54687,-0.0547 -0.80859,-0.16016 -0.25781,-0.10938 -0.48438,-0.26172 -0.68359,-0.46094 -0.19922,-0.19531 -0.35157,-0.42578 -0.45704,-0.68359 -0.10937,-0.25781 -0.16015,-0.52735 -0.16015,-0.8086 0,-0.28125 0.0508,-0.55078 0.16015,-0.80859 0.10547,-0.25781 0.25782,-0.48437 0.45704,-0.68359 0.19921,-0.19922 0.42578,-0.35157 0.68359,-0.45703 0.26172,-0.10938 0.53125,-0.16016 0.80859,-0.16016 0.28125,0 0.55078,0.0508 0.8086,0.16016 0.25781,0.10546 0.48828,0.25781 0.6875,0.45703 0.19531,0.19922 0.34765,0.42578 0.45703,0.68359 0.10547,0.25781 0.16015,0.52734 0.16015,0.80859 z m 0,0"
     fill-opacity="1"
     fill-rule="nonzero"
     id="path34" />
  <path
     fill="#ffffff"
     d="m 252.78906,201.46484 c 0,0.28125 -0.0547,0.55078 -0.16015,0.8086 -0.10938,0.25781 -0.26172,0.48828 -0.45704,0.6875 -0.19921,0.19531 -0.42578,0.34765 -0.6875,0.45703 -0.25781,0.10547 -0.52734,0.16015 -0.80859,0.16015 -0.27734,0 -0.54687,-0.0547 -0.80469,-0.16015 -0.26172,-0.10938 -0.48828,-0.26172 -0.6875,-0.45703 -0.19531,-0.19922 -0.35156,-0.42969 -0.45703,-0.6875 -0.10547,-0.25782 -0.16015,-0.52735 -0.16015,-0.8086 0,-0.27734 0.0547,-0.54687 0.16015,-0.80468 0.10547,-0.26172 0.26172,-0.48829 0.45703,-0.6875 0.19922,-0.19532 0.42578,-0.35157 0.6875,-0.45704 0.25782,-0.10546 0.52735,-0.16015 0.80469,-0.16015 0.28125,0 0.55078,0.0547 0.80859,0.16015 0.26172,0.10547 0.48829,0.26172 0.6875,0.45704 0.19532,0.19921 0.34766,0.42578 0.45704,0.6875 0.10546,0.25781 0.16015,0.52734 0.16015,0.80468 z m 0,0"
     fill-opacity="1"
     fill-rule="nonzero"
     id="path35" />
  <path
     fill="#ffffff"
     d="m 288.68359,151.26172 c 0,0.18359 -0.0351,0.36328 -0.10547,0.53906 -0.0742,0.17188 -0.17578,0.32422 -0.30468,0.45313 -0.13282,0.13281 -0.28516,0.23437 -0.45703,0.30859 -0.17188,0.0703 -0.35157,0.10547 -0.53907,0.10547 -0.1875,0 -0.36718,-0.0352 -0.53906,-0.10547 -0.17187,-0.0742 -0.32422,-0.17578 -0.45703,-0.30859 -0.13281,-0.12891 -0.23438,-0.28125 -0.30469,-0.45313 -0.0703,-0.17578 -0.10937,-0.35547 -0.10937,-0.53906 0,-0.1875 0.0391,-0.36719 0.10937,-0.53906 0.0703,-0.17188 0.17188,-0.32422 0.30469,-0.45704 0.13281,-0.13281 0.28516,-0.23437 0.45703,-0.30468 0.17188,-0.0742 0.35156,-0.10938 0.53906,-0.10938 0.1875,0 0.36719,0.0352 0.53907,0.10938 0.17187,0.0703 0.32421,0.17187 0.45703,0.30468 0.1289,0.13282 0.23047,0.28516 0.30468,0.45704 0.0703,0.17187 0.10547,0.35156 0.10547,0.53906 z m 0,0"
     fill-opacity="1"
     fill-rule="nonzero"
     id="path36" />
  <path
     fill="#ffffff"
     d="m 185.76172,137.08203 c 0,0.14844 -0.0312,0.29688 -0.0898,0.43359 -0.0547,0.14063 -0.14062,0.26563 -0.24609,0.3711 -0.10547,0.10547 -0.23047,0.1875 -0.37109,0.24609 -0.13672,0.0586 -0.28125,0.0859 -0.4336,0.0859 -0.15234,0 -0.29687,-0.0273 -0.4375,-0.0859 -0.14062,-0.0586 -0.26172,-0.14062 -0.36718,-0.24609 -0.10938,-0.10547 -0.19141,-0.23047 -0.25,-0.3711 -0.0547,-0.13671 -0.0859,-0.28515 -0.0859,-0.43359 0,-0.15234 0.0312,-0.29687 0.0859,-0.4375 0.0586,-0.14062 0.14062,-0.26172 0.25,-0.37109 0.10546,-0.10547 0.22656,-0.1875 0.36718,-0.2461 0.14063,-0.0586 0.28516,-0.0859 0.4375,-0.0859 0.15235,0 0.29688,0.0273 0.4336,0.0859 0.14062,0.0586 0.26562,0.14063 0.37109,0.2461 0.10547,0.10937 0.19141,0.23047 0.24609,0.37109 0.0586,0.14063 0.0898,0.28516 0.0898,0.4375 z m 0,0"
     fill-opacity="1"
     fill-rule="nonzero"
     id="path37" />
  <path
     fill="#ffffff"
     d="m 44.457031,69.617188 c 0,0.1875 -0.03516,0.367187 -0.109375,0.539062 -0.07031,0.171875 -0.171875,0.324219 -0.304687,0.457031 -0.132813,0.128907 -0.285157,0.230469 -0.457031,0.304688 -0.171876,0.07031 -0.351563,0.105469 -0.539063,0.105469 -0.183594,0 -0.363281,-0.03516 -0.539063,-0.105469 -0.171874,-0.07422 -0.324218,-0.175781 -0.453124,-0.304688 -0.132813,-0.132812 -0.234376,-0.285156 -0.308594,-0.457031 -0.07031,-0.171875 -0.105469,-0.351562 -0.105469,-0.539062 0,-0.1875 0.03516,-0.367188 0.105469,-0.539063 0.07422,-0.171875 0.175781,-0.324219 0.308594,-0.457031 0.128906,-0.132813 0.28125,-0.234375 0.453124,-0.304688 0.175782,-0.07031 0.355469,-0.109375 0.539063,-0.109375 0.1875,0 0.367187,0.03906 0.539063,0.109375 0.171874,0.07031 0.324218,0.171875 0.457031,0.304688 0.132812,0.132812 0.234375,0.285156 0.304687,0.457031 0.07422,0.171875 0.109375,0.351563 0.109375,0.539063 z m 0,0"
     fill-opacity="1"
     fill-rule="nonzero"
     id="path38" />
  <g
     clip-path="url(#da35920554)"
     id="g39">
    <path
       fill="#ffffff"
       d="m 5.042969,82.988281 c 0,0.28125 -0.054688,0.550781 -0.164063,0.808594 -0.105468,0.257813 -0.257812,0.488281 -0.457031,0.683594 -0.195313,0.199219 -0.425781,0.351562 -0.683594,0.460937 -0.257812,0.105469 -0.527343,0.160156 -0.808593,0.160156 -0.28125,0 -0.550782,-0.05469 -0.808594,-0.160156 C 1.863281,84.832031 1.636719,84.679688 1.4375,84.480469 1.238281,84.285156 1.085938,84.054688 0.980469,83.796875 0.871094,83.539062 0.820312,83.269531 0.820312,82.988281 c 0,-0.277343 0.050782,-0.546875 0.160157,-0.808593 0.105469,-0.257813 0.257812,-0.484376 0.457031,-0.683594 0.199219,-0.199219 0.425781,-0.351563 0.683594,-0.457032 0.257812,-0.109374 0.527344,-0.160156 0.808594,-0.160156 0.28125,0 0.550781,0.05078 0.808593,0.160156 0.257813,0.105469 0.488281,0.257813 0.683594,0.457032 0.199219,0.199218 0.351563,0.425781 0.457031,0.683594 0.109375,0.261718 0.164063,0.53125 0.164063,0.808593 z m 0,0"
       fill-opacity="1"
       fill-rule="nonzero"
       id="path39" />
  </g>
  <path
     fill="#ffffff"
     d="m 204.28516,106.21484 0.41406,2.85157 c 0.0195,0.13281 0.0781,0.25 0.17578,0.34765 0.0937,0.0898 0.21484,0.15625 0.34375,0.17188 l 2.85156,0.41406 -2.85156,0.41406 c -0.13281,0.0195 -0.25391,0.0781 -0.34766,0.17188 -0.0937,0.0937 -0.15625,0.21484 -0.17187,0.34765 l -0.41406,2.84766 -0.41407,-2.85156 c -0.0195,-0.12891 -0.0781,-0.25 -0.17187,-0.34375 -0.0977,-0.0937 -0.21875,-0.15625 -0.34766,-0.17578 L 200.50391,110 l 2.84765,-0.41406 c 0.13281,-0.0195 0.25391,-0.082 0.34766,-0.17578 0.0937,-0.0937 0.15625,-0.21485 0.17187,-0.34375 z m 0,0"
     fill-opacity="1"
     fill-rule="nonzero"
     id="path40" />
</svg>
