<?xml version="1.0" encoding="UTF-8" standalone="no"?>
<!-- Created with Inkscape (http://www.inkscape.org/) -->

<svg
   version="1.1"
   id="svg1"
   width="753.31653"
   height="149.0047"
   viewBox="0 0 753.31653 149.0047"
   xmlns="http://www.w3.org/2000/svg"
   xmlns:svg="http://www.w3.org/2000/svg">
  <defs
     id="defs1" />
  <g
     id="g1"
     transform="translate(-170.36189,-391.92072)">
    <path
       style="fill:#554b43;fill-opacity:1;stroke-width:0.757221"
       d="m 172.05885,426.2405 c 16.30296,-28.77894 54.54604,-42.20283 84.18042,-29.54858 16.44856,7.02374 22.63419,12.76036 52.42529,48.6198 45.79334,55.12126 84.40641,75.51821 141.99953,75.00976 31.7986,-0.28073 53.81676,-7.07431 113.46329,-35.0085 34.48077,-16.14833 47.92285,-21.4797 68.80087,-27.28768 88.94958,-24.74455 194.26297,-1.70212 265.19082,58.02339 11.07921,9.32936 29.23761,27.27363 24.90371,24.61002 -0.93758,-0.57623 -2.58033,-2.0555 -3.65054,-3.28726 -17.56757,-20.21917 -63.90638,-49.72395 -99.11003,-63.10519 -84.27954,-32.03547 -159.82948,-28.7027 -247.73212,10.92832 -94.31441,42.52177 -133.32403,47.33055 -191.49356,23.60578 -32.88776,-13.41348 -48.61002,-26.83439 -85.96351,-73.38064 -16.99321,-21.17526 -25.61966,-28.83302 -39.83393,-35.36085 -29.09668,-13.36248 -68.3216,0.59102 -83.6904,29.77125 -0.36935,0.70128 -0.87849,1.01743 -1.13597,0.7054 -0.25663,-0.31103 0.48411,-2.24377 1.64613,-4.29502 z"
       id="path1" />
  </g>
</svg>
